<?xml version="1.0" encoding="UTF-8"?>
<!DOCTYPE svg PUBLIC "-//W3C//DTD SVG 1.1//EN" "http://www.w3.org/Graphics/SVG/1.1/DTD/svg11.dtd">
<svg xmlns="http://www.w3.org/2000/svg" version="1.1" width="1477px" height="1233px" style="shape-rendering:geometricPrecision; text-rendering:geometricPrecision; image-rendering:optimizeQuality; fill-rule:evenodd; clip-rule:evenodd" xmlns:xlink="http://www.w3.org/1999/xlink">
<g><path style="opacity:0.992" fill="#fd5a34" d="M 838.5,-0.5 C 839.833,-0.5 841.167,-0.5 842.5,-0.5C 895.82,-0.39823 948.487,6.10177 1000.5,19C 1134.7,57.5341 1182.87,144.367 1145,279.5C 1131.97,321.249 1110.97,358.249 1082,390.5C 1024.48,450.611 955.978,493.778 876.5,520C 865.56,523.536 854.56,526.869 843.5,530C 841.884,530.615 840.551,531.615 839.5,533C 892.679,536.947 941.346,553.614 985.5,583C 1062.26,642.595 1091.76,720.428 1074,816.5C 1060.96,870.443 1036.3,918.109 1000,959.5C 931.79,1032.29 850.29,1085.13 755.5,1118C 698.502,1138 639.836,1149.67 579.5,1153C 460.831,1158.91 342.164,1164.75 223.5,1170.5C 221.626,1170.61 220.126,1169.94 219,1168.5C 218.718,1164.96 218.218,1161.46 217.5,1158C 217.975,1156.24 218.642,1154.57 219.5,1153C 453.398,1085.02 687.398,1017.36 921.5,950C 924.57,947.431 925.237,944.264 923.5,940.5C 922.833,940.167 922.167,939.833 921.5,939.5C 687.505,995.999 453.505,1052.5 219.5,1109C 207.54,1111.29 202.373,1106.45 204,1094.5C 452.753,956.207 701.586,818.04 950.5,680C 953.925,677.715 954.425,674.882 952,671.5C 950.938,670.101 949.605,669.101 948,668.5C 693.437,798.531 438.937,928.698 184.5,1059C 180.835,1059.39 178.002,1057.89 176,1054.5C 172.874,1051.45 172.041,1047.95 173.5,1044C 466.198,767.634 759.198,491.634 1052.5,216C 1056.55,212.288 1060.21,208.288 1063.5,204C 1062.34,200.688 1060.34,198.188 1057.5,196.5C 753.414,467.747 449.747,739.58 146.5,1012C 141.36,1017.07 135.693,1017.73 129.5,1014C 128.128,1012.76 127.128,1011.26 126.5,1009.5C 343.138,693.029 559.971,376.696 777,60.5C 777.749,59.365 777.583,58.365 776.5,57.5C 772.894,54.9681 769.394,54.9681 766,57.5C 540.554,369.28 314.72,680.78 88.5,992C 80.071,993.906 76.571,990.739 78,982.5C 201.216,678.346 324.716,374.346 448.5,70.5C 446.231,66.5831 443.397,65.9165 440,68.5C 302.147,367.047 164.481,665.714 27,964.5C 24.5475,969.907 21.7142,975.074 18.5,980C 12.2855,981.416 5.95215,981.916 -0.5,981.5C -0.5,979.833 -0.5,978.167 -0.5,976.5C 89.6431,651.939 179.81,327.273 270,2.5C 270.75,1.87424 271.584,1.37424 272.5,1C 413.167,0.365643 553.834,0.53231 694.5,1.5C 742.676,1.67235 790.676,1.00568 838.5,-0.5 Z"/></g>
<g><path style="opacity:0.99" fill="#fd5b34" d="M 1476.5,238.5 C 1476.5,249.5 1476.5,260.5 1476.5,271.5C 1470.3,346.061 1440.3,409.227 1386.5,461C 1333.77,509.951 1273.11,546.284 1204.5,570C 1190.23,574.868 1175.9,579.535 1161.5,584C 1228.91,591.456 1285.41,619.956 1331,669.5C 1380.67,732.833 1398,804.167 1383,883.5C 1359.46,971.658 1311.96,1043.82 1240.5,1100C 1144.45,1171.65 1036.45,1213.32 916.5,1225C 885.571,1228.11 854.571,1230.11 823.5,1231C 714.666,1231.17 605.999,1231.67 497.5,1232.5C 405.833,1232.5 314.167,1232.5 222.5,1232.5C 217.982,1230.81 215.982,1227.48 216.5,1222.5C 215.81,1216.35 218.31,1214.01 224,1215.5C 381.096,1208.79 538.262,1202.29 695.5,1196C 837.912,1194.64 965.579,1151.31 1078.5,1066C 1130.12,1025.06 1170.62,975.228 1200,916.5C 1226.78,860.355 1233.12,802.021 1219,741.5C 1195.93,668.096 1148.43,617.596 1076.5,590C 1050.22,580.611 1023.22,574.277 995.5,571C 1053.87,552.478 1108.54,526.478 1159.5,493C 1198.21,466.625 1231.38,434.459 1259,396.5C 1303.24,331.627 1317.91,260.627 1303,183.5C 1293.51,151.346 1275.68,124.846 1249.5,104C 1229.83,88.6595 1208.16,76.6595 1184.5,68C 1168.29,62.3661 1151.96,57.1994 1135.5,52.5C 1199.37,49.2446 1262.04,56.4113 1323.5,74C 1366.51,86.2434 1403.68,108.077 1435,139.5C 1459.84,167.852 1473.67,200.852 1476.5,238.5 Z"/></g>
</svg>
