<svg xmlns="http://www.w3.org/2000/svg" version="1.1" xmlns:xlink="http://www.w3.org/1999/xlink" xmlns:svgjs="http://svgjs.dev/svgjs" width="2000" height="1247" viewBox="0 0 2000 1247"><g transform="matrix(1,0,0,1,-1.2121212121212466,0.504858299595071)"><svg viewBox="0 0 396 247" data-background-color="#ffffff" preserveAspectRatio="xMidYMid meet" height="1247" width="2000" xmlns="http://www.w3.org/2000/svg" xmlns:xlink="http://www.w3.org/1999/xlink"><g id="tight-bounds" transform="matrix(1,0,0,1,0.2400000000000091,-0.09999999999999432)"><svg viewBox="0 0 395.52 247.2" height="247.2" width="395.52"><g><svg></svg></g><g><svg viewBox="0 0 395.52 247.2" height="247.2" width="395.52"><g transform="matrix(1,0,0,1,118.93088639999999,47.215199999999996)"><svg viewBox="0 0 157.6582272 152.7696" height="152.7696" width="157.6582272"><g><svg viewBox="0 0 157.6582272 152.7696" height="152.7696" width="157.6582272"><g><svg viewBox="0 0 157.6582272 152.7696" height="152.7696" width="157.6582272"><g><svg viewBox="0 0 157.6582272 152.7696" height="152.7696" width="157.6582272"><g id="textblocktransform"><svg viewBox="0 0 157.6582272 152.7696" height="152.7696" width="157.6582272" id="textblock"><g><svg viewBox="0 0 157.6582272 152.7696" height="152.7696" width="157.6582272"><g transform="matrix(1,0,0,1,0,0)"><svg width="157.6582272" viewBox="1.9000000953674316 -43.349998474121094 45.14999771118164 43.75" height="152.7696" data-palette-color="#31c48d"><path d="M10.45 0L1.9 0 1.9-42.95 10.45-42.95 10.45-27.6 14.5-27.6 14.5-42.95 23.05-42.95 23.05 0 14.5 0 14.5-19.5 10.45-19.5 10.45 0ZM37.05 0.4Q31.2 0.4 28.6-2.5 26-5.4 26-11.85L26-11.85 26-16.05 34.45-16.05 34.45-10.7Q34.45-7.5 36.5-7.5L36.5-7.5Q37.65-7.5 38.1-8.18 38.55-8.85 38.55-10.45L38.55-10.45Q38.55-12.55 38.05-13.93 37.55-15.3 36.77-16.23 36-17.15 34-19.1L34-19.1 30.3-22.8Q26-27 26-32.1L26-32.1Q26-37.6 28.52-40.48 31.05-43.35 35.9-43.35L35.9-43.35Q41.7-43.35 44.25-40.28 46.8-37.2 46.8-30.65L46.8-30.65 38.05-30.65 38-33.6Q38-34.45 37.52-34.95 37.05-35.45 36.2-35.45L36.2-35.45Q35.2-35.45 34.7-34.9 34.2-34.35 34.2-33.4L34.2-33.4Q34.2-31.3 36.6-29.05L36.6-29.05 41.6-24.25Q43.35-22.55 44.5-21.03 45.65-19.5 46.35-17.43 47.05-15.35 47.05-12.5L47.05-12.5Q47.05-6.15 44.72-2.88 42.4 0.4 37.05 0.4L37.05 0.4Z" opacity="1" transform="matrix(1,0,0,1,0,0)" fill="#31c48d" class="undefined-text-0" data-fill-palette-color="primary" id="text-0"></path></svg></g></svg></g></svg></g></svg></g></svg></g></svg></g></svg></g><g><path d="M202.429 0c30.402 0 58.24 10.976 79.768 29.183l-11.147 0c-19.26-14.022-42.974-22.294-68.621-22.295-25.647 0-49.361 8.272-68.621 22.295l-11.147 0c21.528-18.206 49.366-29.183 79.768-29.183zM326.029 123.6c0 16.722-3.321 32.668-9.338 47.215v-23.313c1.606-7.716 2.45-15.71 2.45-23.902 0-8.192-0.844-16.187-2.45-23.902v-23.313c6.018 14.547 9.338 30.493 9.338 47.215zM202.429 247.2c-30.402 0-58.24-10.976-79.768-29.183h11.147c19.26 14.022 42.974 22.294 68.621 22.295 25.647 0 49.361-8.272 68.621-22.295l11.147 0c-21.528 18.206-49.366 29.183-79.768 29.183z" fill="#31c48d" stroke="transparent" data-fill-palette-color="tertiary"></path></g></svg></g><defs></defs></svg><rect width="395.52" height="247.2" fill="none" stroke="none" visibility="hidden"></rect></g></svg></g></svg>